<?xml version="1.0" encoding="utf-8"?>
<!-- Generator: Adobe Illustrator 24.2.0, SVG Export Plug-In . SVG Version: 6.00 Build 0)  -->
<svg version="1.1" id="ff08a45b-e0d4-4dc6-a8bf-15e0620d4a64"
	 xmlns="http://www.w3.org/2000/svg" xmlns:xlink="http://www.w3.org/1999/xlink" x="0px" y="0px" viewBox="0 0 758 650.3"
	 style="enable-background:new 0 0 758 650.3;" xml:space="preserve">
<style type="text/css">
	.st0{fill:#E6E6E6;}
	.st1{fill:#FFFFFF;}
	.st2{fill:#DC0505;}
	.st3{fill:#3F3D56;}
	.st4{fill:#FFB8B8;}
	.st5{fill:#2F2E41;}
</style>
<path class="st0" d="M81.3,0C63.7,0,49.4,14.3,49.4,31.9v583.1c0,17.6,14.3,31.9,31.9,31.9h319.4c17.6,0,31.9-14.3,31.9-31.9V31.9
	c0-17.6-14.3-31.9-31.9-31.9L81.3,0z"/>
<path class="st1" d="M91.8,18.2c-13.4,0-24.2,10.9-24.2,24.2v562.2c0,13.4,10.9,24.2,24.2,24.2h298.5c13.4,0,24.2-10.9,24.2-24.2
	V42.4c0-13.4-10.9-24.2-24.2-24.2H91.8z"/>
<path class="st0" d="M385.1,136.6H96.9c-2.9,0-5.3-2.4-5.3-5.3V59.8c0-2.9,2.4-5.3,5.3-5.3h288.3c2.9,0,5.3,2.4,5.3,5.3v71.5
	C390.5,134.3,388.1,136.6,385.1,136.6z M96.9,56.6c-1.8,0-3.2,1.4-3.2,3.2v71.5c0,1.8,1.4,3.2,3.2,3.2h288.3c1.8,0,3.2-1.4,3.2-3.2
	V59.8c0-1.8-1.4-3.2-3.2-3.2H96.9z"/>
<path class="st0" d="M385.1,419.6H96.9c-2.9,0-5.3-2.4-5.3-5.3V281.9c0-2.9,2.4-5.3,5.3-5.3h288.3c2.9,0,5.3,2.4,5.3,5.3v132.4
	C390.5,417.2,388.1,419.6,385.1,419.6z M96.9,278.7c-1.8,0-3.2,1.4-3.2,3.2v132.4c0,1.8,1.4,3.2,3.2,3.2h288.3
	c1.8,0,3.2-1.4,3.2-3.2V281.9c0-1.8-1.4-3.2-3.2-3.2L96.9,278.7z"/>
<path class="st0" d="M383,247.7H254.9c-2.9,0-5.3-2.4-5.3-5.3v-71.5c0-2.9,2.4-5.3,5.3-5.3H383c2.9,0,5.3,2.4,5.3,5.3v71.5
	C388.3,245.3,386,247.7,383,247.7z M254.9,167.6c-1.8,0-3.2,1.4-3.2,3.2v71.5c0,1.8,1.4,3.2,3.2,3.2H383c1.8,0,3.2-1.4,3.2-3.2
	v-71.5c0-1.8-1.4-3.2-3.2-3.2L254.9,167.6z"/>
<path class="st0" d="M225,592.5H96.9c-2.9,0-5.3-2.4-5.3-5.3V453.8c0-2.9,2.4-5.3,5.3-5.3H225c2.9,0,5.3,2.4,5.3,5.3v133.4
	C230.3,590.1,227.9,592.5,225,592.5z M96.9,450.6c-1.8,0-3.2,1.4-3.2,3.2v133.4c0,1.8,1.4,3.2,3.2,3.2H225c1.8,0,3.2-1.4,3.2-3.2
	V453.8c0-1.8-1.4-3.2-3.2-3.2H96.9z"/>
<path class="st0" d="M383,592.5H254.9c-2.9,0-5.3-2.4-5.3-5.3V453.8c0-2.9,2.4-5.3,5.3-5.3H383c2.9,0,5.3,2.4,5.3,5.3v133.4
	C388.3,590.1,386,592.5,383,592.5z M254.9,450.6c-1.8,0-3.2,1.4-3.2,3.2v133.4c0,1.8,1.4,3.2,3.2,3.2H383c1.8,0,3.2-1.4,3.2-3.2
	V453.8c0-1.8-1.4-3.2-3.2-3.2H254.9z"/>
<circle class="st2" cx="139.5" cy="323.4" r="21.7"/>
<path class="st0" d="M189.8,308.9c-2,0-3.6,1.6-3.6,3.6s1.6,3.6,3.6,3.6h170.9c2,0,3.6-1.6,3.6-3.6c0-2-1.6-3.6-3.6-3.6H189.8z"/>
<path class="st0" d="M189.8,330.7c-2,0-3.6,1.6-3.6,3.6c0,2,1.6,3.6,3.6,3.6c0,0,0,0,0,0h73.5c2,0,3.6-1.6,3.6-3.6s-1.6-3.6-3.6-3.6
	H189.8z"/>
<path class="st0" d="M122.9,365.4c-2.8,0-5,1.6-5,3.6s2.2,3.6,5,3.6h235.7c2.8,0,5-1.6,5-3.6s-2.2-3.6-5-3.6H122.9z"/>
<path class="st0" d="M122.9,387.2c-2.8,0-5,1.6-5,3.6s2.2,3.6,5,3.6h235.7c2.8,0,5-1.6,5-3.6s-2.2-3.6-5-3.6H122.9z"/>
<circle class="st2" cx="141.7" cy="92.8" r="21.7"/>
<path class="st0" d="M191.9,78.3c-2,0-3.6,1.6-3.6,3.6c0,2,1.6,3.6,3.6,3.6h170.9c2,0,3.6-1.6,3.6-3.6c0-2-1.6-3.6-3.6-3.6
	c0,0,0,0,0,0H191.9z"/>
<path class="st0" d="M191.9,100.1c-2,0-3.6,1.6-3.6,3.6c0,2,1.6,3.6,3.6,3.6h73.5c2,0,3.6-1.6,3.6-3.6c0-2-1.6-3.6-3.6-3.6
	c0,0,0,0,0,0H191.9z"/>
<path class="st0" d="M224.9,247.7H104.7l28.3-49c1.6-2.8,5.1-3.7,7.9-2.1c0.9,0.5,1.6,1.2,2.1,2.1l12.1,20.9l20.5-35.6
	c2-3.5,6.4-4.6,9.9-2.6c1.1,0.6,2,1.5,2.6,2.6L224.9,247.7z M108.4,245.6h112.8l-34.9-60.4c-1.4-2.4-4.5-3.3-7-1.9
	c-0.8,0.4-1.4,1.1-1.9,1.9l-22.4,38.8l-13.9-24.1c-1-1.7-3.2-2.3-5-1.3c-0.6,0.3-1,0.8-1.3,1.3L108.4,245.6z"/>
<path class="st0" d="M378.6,247.7H258.4l28.3-49c1.6-2.8,5.1-3.7,7.9-2.1c0.9,0.5,1.6,1.2,2.1,2.1l12.1,20.9l20.5-35.6
	c2-3.5,6.4-4.6,9.9-2.6c1.1,0.6,2,1.5,2.6,2.6L378.6,247.7z M262.1,245.6h112.8L340,185.1c-1.4-2.4-4.5-3.3-7-1.9
	c-0.8,0.4-1.4,1.1-1.9,1.9l-22.4,38.8l-13.9-24.1c-1-1.7-3.2-2.3-5-1.3c-0.6,0.3-1,0.8-1.3,1.3L262.1,245.6z"/>
<path class="st0" d="M225,247.7H96.9c-2.9,0-5.3-2.4-5.3-5.3v-71.5c0-2.9,2.4-5.3,5.3-5.3H225c2.9,0,5.3,2.4,5.3,5.3v71.5
	C230.3,245.3,227.9,247.7,225,247.7z M96.9,167.6c-1.8,0-3.2,1.4-3.2,3.2v71.5c0,1.8,1.4,3.2,3.2,3.2H225c1.8,0,3.2-1.4,3.2-3.2
	v-71.5c0-1.8-1.4-3.2-3.2-3.2L96.9,167.6z"/>
<path class="st0" d="M124.2,475.9c-2,0-3.6,1.6-3.6,3.6c0,2,1.6,3.6,3.6,3.6h73.5c2,0,3.6-1.6,3.6-3.6c0-2-1.6-3.6-3.6-3.6H124.2z"
	/>
<path class="st0" d="M124.2,497.3c-2,0-3.6,1.6-3.6,3.6c0,2,1.6,3.6,3.6,3.6h73.5c2,0,3.6-1.6,3.6-3.6c0-2-1.6-3.6-3.6-3.6H124.2z"
	/>
<path class="st0" d="M160.9,565c-12.6,0-22.8-10.2-22.8-22.8c0-12.6,10.2-22.8,22.8-22.8c12.6,0,22.8,10.2,22.8,22.8l0,0
	C183.7,554.8,173.5,565,160.9,565z M160.9,521.5c-11.4,0-20.7,9.3-20.7,20.7c0,11.4,9.3,20.7,20.7,20.7c11.4,0,20.7-9.3,20.7-20.7
	l0,0C181.6,530.8,172.4,521.5,160.9,521.5L160.9,521.5z"/>
<path class="st0" d="M355.7,565c2,0,3.6-1.6,3.6-3.6c0-2-1.6-3.6-3.6-3.6h-73.5c-2,0-3.6,1.6-3.6,3.6c0,2,1.6,3.6,3.6,3.6H355.7z"/>
<path class="st0" d="M355.7,543.7c2,0,3.6-1.6,3.6-3.6c0-2-1.6-3.6-3.6-3.6l0,0h-73.5c-2,0-3.6,1.6-3.6,3.6c0,2,1.6,3.6,3.6,3.6
	H355.7z"/>
<path class="st0" d="M319,475.9c12.6,0,22.8,10.2,22.8,22.8s-10.2,22.8-22.8,22.8s-22.8-10.2-22.8-22.8v0
	C296.2,486.2,306.4,476,319,475.9z M319,519.4c11.4,0,20.7-9.3,20.7-20.7c0-11.4-9.3-20.7-20.7-20.7c-11.4,0-20.7,9.3-20.7,20.7
	c0,0,0,0,0,0C298.3,510.2,307.5,519.4,319,519.4L319,519.4z"/>
<polygon class="st3" points="757.6,648.1 0,648.1 0,645.9 758,645.9 "/>
<polygon class="st4" points="593.3,358.8 578.7,389.7 567.5,363.1 582.1,353.6 "/>
<polygon class="st4" points="675.5,367.8 680.2,391.5 700.9,363.9 684.5,355.3 "/>
<path class="st5" d="M653.5,624.7c-8.3,5.9-16.3,8.9-22.4-1.7c8-66.9,8.3-130.6,0-189.3l-63.7,196.2l-23.2-3.4
	c13-70.3,22.9-174.1,35.3-278l99-0.9C691.6,422.5,669.8,519.8,653.5,624.7z"/>
<path class="st5" d="M595.6,649.6l-48.5-3.5c-3.7-1.6-5.8-5.4-5.3-9.3l2.2-15.7c0.1-0.8,0.8-1.3,1.6-1.2c0.5,0.1,0.9,0.4,1.1,0.8
	c3.1,6.2,8.2,6.5,15.3,0.2c1.6-4.2,4.5-6,9.4-4.7c9.3,14,20.3,9.5,33.7,20.4c3,3.4,2.7,8.6-0.6,11.6c-0.4,0.4-0.9,0.8-1.5,1l0,0
	C600.7,650.5,598,650.6,595.6,649.6z"/>
<path class="st5" d="M681.7,649.6l-48.5-3.5c-3.7-1.6-5.8-5.4-5.3-9.3l2.2-15.7c0.1-0.8,0.8-1.3,1.6-1.2c0.5,0.1,0.9,0.4,1.1,0.8
	c3.1,6.2,8.2,6.5,15.3,0.2c1.6-4.2,4.5-6,9.4-4.7c9.3,14,20.3,9.5,33.7,20.4c3,3.4,2.7,8.6-0.6,11.6c-0.4,0.4-0.9,0.8-1.5,1l0,0
	C686.7,650.5,684,650.6,681.7,649.6z"/>
<circle class="st4" cx="639.3" cy="145.8" r="32.7"/>
<path class="st4" d="M662.6,208.6h-49.9c13.8-15.7,12-33.1,0-51.6h49.9C655.7,172.5,655.4,189.6,662.6,208.6z"/>
<path class="st2" d="M681.1,363.9c-33.7,16.4-67.6,14.5-101.5-5.2c-7.5-46-10.3-101.8-11.1-161.8c-0.1-4.9,3.5-9.2,8.4-10l44.9-7.2
	l21.5,22.4l14.6-18.1l19.4,8c3.4,1.4,5.5,4.7,5.4,8.4C680.5,261.2,679.4,317.8,681.1,363.9z"/>
<path class="st5" d="M670.9,155.9c-3-9.2-8.5-15.9-16.9-19.7c-18.8,4-34.2,1.3-46.9-6.6c2.1-9.9,6.7-18.1,14.9-23.9
	c6.2-5.4,8.9-1.6,13-3.9c13.8-7.8,31.7,1.2,39.1,15.2c1.7,2.9,2.5,6.1,2.5,9.5L670.9,155.9z"/>
<path class="st2" d="M704.3,367.4l-25.8-12.9L674.2,191l4.1,1.3c11,3.4,18.7,13.2,19.4,24.7l0.6,72.2L704.3,367.4z"/>
<path class="st2" d="M585.6,355.3l-17.2,14.6c-25.3-21.9-42.9-46.6-48.2-75.7l30.3-88.8c3.5-10.3,12.9-17.5,23.7-18.3l5.3-0.4
	l-3.9,62.4l-19.4,47.8C555.1,309.6,570.5,332.6,585.6,355.3z"/>
<ellipse class="st4" cx="667.7" cy="148.4" rx="3.4" ry="6"/>
</svg>
